<svg width="587" height="226" viewBox="0 0 587 226" fill="none" xmlns="http://www.w3.org/2000/svg">
<path d="M35.2559 55.9404V61H10.4092V55.9404H35.2559ZM11.666 14.0781V61H5.44629V14.0781H11.666ZM31.9688 34.252V39.3115H10.4092V34.252H31.9688ZM34.9336 14.0781V19.1699H10.4092V14.0781H34.9336ZM48.0176 33.5752V61H42.0557V26.1309H47.6953L48.0176 33.5752ZM46.5996 42.2441L44.1182 42.1475C44.1396 39.7627 44.4941 37.5605 45.1816 35.541C45.8691 33.5 46.8359 31.7275 48.082 30.2236C49.3281 28.7197 50.8105 27.5596 52.5293 26.7432C54.2695 25.9053 56.1924 25.4863 58.2979 25.4863C60.0166 25.4863 61.5635 25.7227 62.9385 26.1953C64.3135 26.6465 65.4844 27.377 66.4512 28.3867C67.4395 29.3965 68.1914 30.707 68.707 32.3184C69.2227 33.9082 69.4805 35.8525 69.4805 38.1514V61H63.4863V38.0869C63.4863 36.2607 63.2178 34.7998 62.6807 33.7041C62.1436 32.5869 61.3594 31.7812 60.3281 31.2871C59.2969 30.7715 58.0293 30.5137 56.5254 30.5137C55.043 30.5137 53.6895 30.8252 52.4648 31.4482C51.2617 32.0713 50.2197 32.9307 49.3389 34.0264C48.4795 35.1221 47.8027 36.3789 47.3086 37.7969C46.8359 39.1934 46.5996 40.6758 46.5996 42.2441ZM78.6973 26.1309H84.6914V65.1572C84.6914 67.2842 84.3477 69.0889 83.6602 70.5713C82.9941 72.0537 81.9844 73.1709 80.6309 73.9229C79.2988 74.6963 77.6123 75.083 75.5713 75.083C75.0342 75.083 74.4111 75.0293 73.7021 74.9219C72.9717 74.8145 72.3594 74.6855 71.8652 74.5352L71.8975 69.7334C72.3057 69.8193 72.7676 69.8838 73.2832 69.9268C73.7988 69.9912 74.25 70.0234 74.6367 70.0234C75.5176 70.0234 76.2588 69.8623 76.8604 69.54C77.4619 69.2178 77.9131 68.7021 78.2139 67.9932C78.5361 67.2842 78.6973 66.3389 78.6973 65.1572V26.1309ZM78.085 16.8818C78.085 15.915 78.3857 15.0986 78.9873 14.4326C79.5889 13.7666 80.459 13.4336 81.5977 13.4336C82.7578 13.4336 83.6387 13.7666 84.2402 14.4326C84.8418 15.0986 85.1426 15.915 85.1426 16.8818C85.1426 17.8057 84.8418 18.6006 84.2402 19.2666C83.6387 19.9111 82.7578 20.2334 81.5977 20.2334C80.459 20.2334 79.5889 19.9111 78.9873 19.2666C78.3857 18.6006 78.085 17.8057 78.085 16.8818ZM92.748 43.9521V43.2109C92.748 40.6973 93.1133 38.3662 93.8438 36.2178C94.5742 34.0479 95.627 32.168 97.002 30.5781C98.377 28.9668 100.042 27.7207 101.997 26.8398C103.952 25.9375 106.144 25.4863 108.571 25.4863C111.021 25.4863 113.223 25.9375 115.178 26.8398C117.154 27.7207 118.83 28.9668 120.205 30.5781C121.602 32.168 122.665 34.0479 123.396 36.2178C124.126 38.3662 124.491 40.6973 124.491 43.2109V43.9521C124.491 46.4658 124.126 48.7969 123.396 50.9453C122.665 53.0938 121.602 54.9736 120.205 56.585C118.83 58.1748 117.165 59.4209 115.21 60.3232C113.276 61.2041 111.085 61.6445 108.636 61.6445C106.187 61.6445 103.984 61.2041 102.029 60.3232C100.074 59.4209 98.3984 58.1748 97.002 56.585C95.627 54.9736 94.5742 53.0938 93.8438 50.9453C93.1133 48.7969 92.748 46.4658 92.748 43.9521ZM98.71 43.2109V43.9521C98.71 45.6924 98.9141 47.3359 99.3223 48.8828C99.7305 50.4082 100.343 51.7617 101.159 52.9434C101.997 54.125 103.039 55.0596 104.285 55.7471C105.531 56.4131 106.981 56.7461 108.636 56.7461C110.269 56.7461 111.697 56.4131 112.922 55.7471C114.168 55.0596 115.199 54.125 116.016 52.9434C116.832 51.7617 117.444 50.4082 117.853 48.8828C118.282 47.3359 118.497 45.6924 118.497 43.9521V43.2109C118.497 41.4922 118.282 39.8701 117.853 38.3447C117.444 36.7979 116.821 35.4336 115.983 34.252C115.167 33.0488 114.136 32.1035 112.89 31.416C111.665 30.7285 110.226 30.3848 108.571 30.3848C106.938 30.3848 105.499 30.7285 104.253 31.416C103.028 32.1035 101.997 33.0488 101.159 34.252C100.343 35.4336 99.7305 36.7979 99.3223 38.3447C98.9141 39.8701 98.71 41.4922 98.71 43.2109ZM141.249 57.3906L150.949 26.1309H157.33L143.344 66.3818C143.021 67.2412 142.592 68.165 142.055 69.1533C141.539 70.1631 140.873 71.1191 140.057 72.0215C139.24 72.9238 138.252 73.6543 137.092 74.2129C135.953 74.793 134.589 75.083 132.999 75.083C132.526 75.083 131.925 75.0186 131.194 74.8896C130.464 74.7607 129.948 74.6533 129.647 74.5674L129.615 69.7334C129.787 69.7549 130.056 69.7764 130.421 69.7979C130.808 69.8408 131.076 69.8623 131.227 69.8623C132.58 69.8623 133.729 69.6797 134.675 69.3145C135.62 68.9707 136.415 68.3799 137.06 67.542C137.726 66.7256 138.295 65.5977 138.768 64.1582L141.249 57.3906ZM134.127 26.1309L143.183 53.2012L144.729 59.4854L140.443 61.6768L127.617 26.1309H134.127ZM41.5723 113.057V116.021C41.5723 119.545 41.1318 122.703 40.251 125.496C39.3701 128.289 38.1025 130.663 36.4482 132.618C34.7939 134.573 32.8066 136.066 30.4863 137.098C28.1875 138.129 25.6094 138.645 22.752 138.645C19.9805 138.645 17.4346 138.129 15.1143 137.098C12.8154 136.066 10.8174 134.573 9.12012 132.618C7.44434 130.663 6.14453 128.289 5.2207 125.496C4.29688 122.703 3.83496 119.545 3.83496 116.021V113.057C3.83496 109.533 4.28613 106.386 5.18848 103.614C6.1123 100.821 7.41211 98.4473 9.08789 96.4922C10.7637 94.5156 12.751 93.0117 15.0498 91.9805C17.3701 90.9492 19.916 90.4336 22.6875 90.4336C25.5449 90.4336 28.123 90.9492 30.4219 91.9805C32.7422 93.0117 34.7295 94.5156 36.3838 96.4922C38.0596 98.4473 39.3379 100.821 40.2188 103.614C41.1211 106.386 41.5723 109.533 41.5723 113.057ZM35.417 116.021V112.992C35.417 110.199 35.127 107.729 34.5469 105.58C33.9883 103.432 33.1611 101.627 32.0654 100.166C30.9697 98.7051 29.627 97.5986 28.0371 96.8467C26.4688 96.0947 24.6855 95.7188 22.6875 95.7188C20.7539 95.7188 19.0029 96.0947 17.4346 96.8467C15.8877 97.5986 14.5557 98.7051 13.4385 100.166C12.3428 101.627 11.4941 103.432 10.8926 105.58C10.291 107.729 9.99023 110.199 9.99023 112.992V116.021C9.99023 118.836 10.291 121.328 10.8926 123.498C11.4941 125.646 12.3535 127.462 13.4707 128.944C14.6094 130.405 15.9521 131.512 17.499 132.264C19.0674 133.016 20.8184 133.392 22.752 133.392C24.7715 133.392 26.5654 133.016 28.1338 132.264C29.7021 131.512 31.0234 130.405 32.0977 128.944C33.1934 127.462 34.0205 125.646 34.5791 123.498C35.1377 121.328 35.417 118.836 35.417 116.021ZM60.5859 132.618L70.125 103.131H76.2158L63.6797 138H59.6836L60.5859 132.618ZM52.626 103.131L62.4551 132.779L63.1318 138H59.1357L46.5029 103.131H52.626ZM95.9707 138.645C93.543 138.645 91.3408 138.236 89.3643 137.42C87.4092 136.582 85.7227 135.411 84.3047 133.907C82.9082 132.403 81.834 130.62 81.082 128.558C80.3301 126.495 79.9541 124.239 79.9541 121.79V120.437C79.9541 117.601 80.373 115.076 81.2109 112.863C82.0488 110.629 83.1875 108.738 84.627 107.191C86.0664 105.645 87.6992 104.474 89.5254 103.679C91.3516 102.884 93.2422 102.486 95.1973 102.486C97.6895 102.486 99.8379 102.916 101.643 103.775C103.469 104.635 104.962 105.838 106.122 107.385C107.282 108.91 108.142 110.715 108.7 112.799C109.259 114.861 109.538 117.117 109.538 119.566V122.241H83.499V117.375H103.576V116.924C103.49 115.377 103.168 113.873 102.609 112.412C102.072 110.951 101.213 109.748 100.031 108.803C98.8496 107.857 97.2383 107.385 95.1973 107.385C93.8438 107.385 92.5977 107.675 91.459 108.255C90.3203 108.813 89.3428 109.651 88.5264 110.769C87.71 111.886 87.0762 113.25 86.625 114.861C86.1738 116.473 85.9482 118.331 85.9482 120.437V121.79C85.9482 123.444 86.1738 125.002 86.625 126.463C87.0977 127.902 87.7744 129.17 88.6553 130.266C89.5576 131.361 90.6426 132.221 91.9102 132.844C93.1992 133.467 94.6602 133.778 96.293 133.778C98.3984 133.778 100.182 133.349 101.643 132.489C103.104 131.63 104.382 130.48 105.478 129.041L109.087 131.909C108.335 133.048 107.379 134.133 106.219 135.164C105.059 136.195 103.63 137.033 101.933 137.678C100.257 138.322 98.2695 138.645 95.9707 138.645ZM122.461 108.609V138H116.499V103.131H122.3L122.461 108.609ZM133.354 102.938L133.321 108.48C132.827 108.373 132.354 108.309 131.903 108.287C131.474 108.244 130.979 108.223 130.421 108.223C129.046 108.223 127.832 108.438 126.779 108.867C125.727 109.297 124.835 109.898 124.104 110.672C123.374 111.445 122.794 112.369 122.364 113.443C121.956 114.496 121.688 115.656 121.559 116.924L119.883 117.891C119.883 115.785 120.087 113.809 120.495 111.961C120.925 110.113 121.58 108.48 122.461 107.062C123.342 105.623 124.459 104.506 125.812 103.711C127.188 102.895 128.82 102.486 130.711 102.486C131.141 102.486 131.635 102.54 132.193 102.647C132.752 102.733 133.139 102.83 133.354 102.938ZM144.826 88.5V138H138.864V88.5H144.826ZM143.408 119.244L140.927 119.147C140.948 116.763 141.303 114.561 141.99 112.541C142.678 110.5 143.645 108.728 144.891 107.224C146.137 105.72 147.619 104.56 149.338 103.743C151.078 102.905 153.001 102.486 155.106 102.486C156.825 102.486 158.372 102.723 159.747 103.195C161.122 103.646 162.293 104.377 163.26 105.387C164.248 106.396 165 107.707 165.516 109.318C166.031 110.908 166.289 112.853 166.289 115.151V138H160.295V115.087C160.295 113.261 160.026 111.8 159.489 110.704C158.952 109.587 158.168 108.781 157.137 108.287C156.105 107.771 154.838 107.514 153.334 107.514C151.852 107.514 150.498 107.825 149.273 108.448C148.07 109.071 147.028 109.931 146.147 111.026C145.288 112.122 144.611 113.379 144.117 114.797C143.645 116.193 143.408 117.676 143.408 119.244ZM189.686 138.645C187.258 138.645 185.056 138.236 183.079 137.42C181.124 136.582 179.438 135.411 178.02 133.907C176.623 132.403 175.549 130.62 174.797 128.558C174.045 126.495 173.669 124.239 173.669 121.79V120.437C173.669 117.601 174.088 115.076 174.926 112.863C175.764 110.629 176.902 108.738 178.342 107.191C179.781 105.645 181.414 104.474 183.24 103.679C185.066 102.884 186.957 102.486 188.912 102.486C191.404 102.486 193.553 102.916 195.357 103.775C197.184 104.635 198.677 105.838 199.837 107.385C200.997 108.91 201.856 110.715 202.415 112.799C202.974 114.861 203.253 117.117 203.253 119.566V122.241H177.214V117.375H197.291V116.924C197.205 115.377 196.883 113.873 196.324 112.412C195.787 110.951 194.928 109.748 193.746 108.803C192.564 107.857 190.953 107.385 188.912 107.385C187.559 107.385 186.312 107.675 185.174 108.255C184.035 108.813 183.058 109.651 182.241 110.769C181.425 111.886 180.791 113.25 180.34 114.861C179.889 116.473 179.663 118.331 179.663 120.437V121.79C179.663 123.444 179.889 125.002 180.34 126.463C180.812 127.902 181.489 129.17 182.37 130.266C183.272 131.361 184.357 132.221 185.625 132.844C186.914 133.467 188.375 133.778 190.008 133.778C192.113 133.778 193.896 133.349 195.357 132.489C196.818 131.63 198.097 130.48 199.192 129.041L202.802 131.909C202.05 133.048 201.094 134.133 199.934 135.164C198.773 136.195 197.345 137.033 195.647 137.678C193.972 138.322 191.984 138.645 189.686 138.645ZM230.774 132.038V114.088C230.774 112.713 230.495 111.521 229.937 110.511C229.399 109.479 228.583 108.685 227.487 108.126C226.392 107.567 225.038 107.288 223.427 107.288C221.923 107.288 220.602 107.546 219.463 108.062C218.346 108.577 217.465 109.254 216.82 110.092C216.197 110.93 215.886 111.832 215.886 112.799H209.924C209.924 111.553 210.246 110.317 210.891 109.093C211.535 107.868 212.459 106.762 213.662 105.773C214.887 104.764 216.348 103.969 218.045 103.389C219.764 102.787 221.676 102.486 223.781 102.486C226.316 102.486 228.551 102.916 230.484 103.775C232.439 104.635 233.965 105.935 235.061 107.675C236.178 109.394 236.736 111.553 236.736 114.152V130.395C236.736 131.555 236.833 132.79 237.026 134.101C237.241 135.411 237.553 136.539 237.961 137.484V138H231.741C231.44 137.312 231.204 136.399 231.032 135.261C230.86 134.101 230.774 133.026 230.774 132.038ZM231.806 116.859L231.87 121.049H225.844C224.146 121.049 222.632 121.188 221.3 121.468C219.968 121.726 218.851 122.123 217.948 122.66C217.046 123.197 216.358 123.874 215.886 124.69C215.413 125.485 215.177 126.42 215.177 127.494C215.177 128.59 215.424 129.589 215.918 130.491C216.412 131.394 217.153 132.113 218.142 132.65C219.151 133.166 220.387 133.424 221.848 133.424C223.674 133.424 225.285 133.037 226.682 132.264C228.078 131.49 229.185 130.545 230.001 129.428C230.839 128.311 231.29 127.226 231.354 126.173L233.9 129.041C233.75 129.943 233.342 130.942 232.676 132.038C232.01 133.134 231.118 134.187 230.001 135.196C228.905 136.185 227.595 137.012 226.069 137.678C224.565 138.322 222.868 138.645 220.978 138.645C218.614 138.645 216.541 138.183 214.758 137.259C212.996 136.335 211.621 135.1 210.633 133.553C209.666 131.984 209.183 130.233 209.183 128.3C209.183 126.431 209.548 124.787 210.278 123.369C211.009 121.93 212.062 120.737 213.437 119.792C214.812 118.825 216.466 118.095 218.399 117.601C220.333 117.106 222.492 116.859 224.877 116.859H231.806ZM268.093 131.232V88.5H274.087V138H268.608L268.093 131.232ZM244.632 120.952V120.275C244.632 117.611 244.954 115.194 245.599 113.024C246.265 110.833 247.199 108.953 248.402 107.385C249.627 105.816 251.077 104.613 252.753 103.775C254.45 102.916 256.341 102.486 258.425 102.486C260.616 102.486 262.528 102.873 264.161 103.646C265.815 104.398 267.212 105.505 268.351 106.966C269.511 108.405 270.424 110.146 271.09 112.187C271.756 114.228 272.218 116.537 272.476 119.115V122.08C272.239 124.637 271.777 126.936 271.09 128.977C270.424 131.018 269.511 132.758 268.351 134.197C267.212 135.637 265.815 136.743 264.161 137.517C262.507 138.269 260.573 138.645 258.36 138.645C256.319 138.645 254.45 138.204 252.753 137.323C251.077 136.442 249.627 135.207 248.402 133.617C247.199 132.027 246.265 130.158 245.599 128.01C244.954 125.84 244.632 123.487 244.632 120.952ZM250.626 120.275V120.952C250.626 122.692 250.798 124.325 251.142 125.851C251.507 127.376 252.065 128.719 252.817 129.879C253.569 131.039 254.525 131.952 255.686 132.618C256.846 133.263 258.231 133.585 259.843 133.585C261.819 133.585 263.441 133.166 264.709 132.328C265.998 131.49 267.029 130.384 267.803 129.009C268.576 127.634 269.178 126.141 269.607 124.529V116.763C269.35 115.581 268.974 114.442 268.479 113.347C268.007 112.229 267.384 111.241 266.61 110.382C265.858 109.501 264.924 108.803 263.807 108.287C262.711 107.771 261.411 107.514 259.907 107.514C258.274 107.514 256.867 107.857 255.686 108.545C254.525 109.211 253.569 110.135 252.817 111.316C252.065 112.477 251.507 113.83 251.142 115.377C250.798 116.902 250.626 118.535 250.626 120.275ZM317.367 116.054H305.476L305.411 111.059H316.207C317.99 111.059 319.548 110.758 320.88 110.156C322.212 109.555 323.243 108.695 323.974 107.578C324.726 106.439 325.102 105.086 325.102 103.518C325.102 101.799 324.769 100.402 324.103 99.3281C323.458 98.2324 322.459 97.4375 321.105 96.9434C319.773 96.4277 318.076 96.1699 316.014 96.1699H306.861V138H300.642V91.0781H316.014C318.42 91.0781 320.568 91.3252 322.459 91.8193C324.35 92.292 325.95 93.0439 327.261 94.0752C328.593 95.085 329.603 96.374 330.29 97.9424C330.978 99.5107 331.321 101.391 331.321 103.582C331.321 105.516 330.827 107.267 329.839 108.835C328.851 110.382 327.476 111.649 325.714 112.638C323.974 113.626 321.933 114.26 319.591 114.539L317.367 116.054ZM317.077 138H303.026L306.539 132.94H317.077C319.054 132.94 320.729 132.597 322.104 131.909C323.501 131.222 324.564 130.255 325.295 129.009C326.025 127.741 326.391 126.248 326.391 124.529C326.391 122.789 326.079 121.285 325.456 120.018C324.833 118.75 323.855 117.772 322.523 117.085C321.191 116.397 319.473 116.054 317.367 116.054H308.505L308.569 111.059H320.687L322.008 112.863C324.264 113.057 326.176 113.701 327.744 114.797C329.312 115.871 330.505 117.246 331.321 118.922C332.159 120.598 332.578 122.445 332.578 124.465C332.578 127.387 331.934 129.857 330.645 131.877C329.377 133.875 327.583 135.4 325.263 136.453C322.942 137.484 320.214 138 317.077 138ZM347.338 103.131V138H341.344V103.131H347.338ZM340.893 93.8818C340.893 92.915 341.183 92.0986 341.763 91.4326C342.364 90.7666 343.245 90.4336 344.405 90.4336C345.544 90.4336 346.414 90.7666 347.016 91.4326C347.639 92.0986 347.95 92.915 347.95 93.8818C347.95 94.8057 347.639 95.6006 347.016 96.2666C346.414 96.9111 345.544 97.2334 344.405 97.2334C343.245 97.2334 342.364 96.9111 341.763 96.2666C341.183 95.6006 340.893 94.8057 340.893 93.8818ZM362.871 110.575V138H356.909V103.131H362.549L362.871 110.575ZM361.453 119.244L358.972 119.147C358.993 116.763 359.348 114.561 360.035 112.541C360.723 110.5 361.689 108.728 362.936 107.224C364.182 105.72 365.664 104.56 367.383 103.743C369.123 102.905 371.046 102.486 373.151 102.486C374.87 102.486 376.417 102.723 377.792 103.195C379.167 103.646 380.338 104.377 381.305 105.387C382.293 106.396 383.045 107.707 383.561 109.318C384.076 110.908 384.334 112.853 384.334 115.151V138H378.34V115.087C378.34 113.261 378.071 111.8 377.534 110.704C376.997 109.587 376.213 108.781 375.182 108.287C374.15 107.771 372.883 107.514 371.379 107.514C369.896 107.514 368.543 107.825 367.318 108.448C366.115 109.071 365.073 109.931 364.192 111.026C363.333 112.122 362.656 113.379 362.162 114.797C361.689 116.193 361.453 117.676 361.453 119.244ZM435.671 126.141C435.671 125.045 435.499 124.078 435.155 123.24C434.833 122.381 434.253 121.607 433.415 120.92C432.599 120.232 431.46 119.577 429.999 118.954C428.56 118.331 426.733 117.697 424.521 117.053C422.2 116.365 420.105 115.603 418.236 114.765C416.367 113.905 414.767 112.928 413.435 111.832C412.103 110.736 411.082 109.479 410.373 108.062C409.664 106.644 409.31 105.021 409.31 103.195C409.31 101.369 409.686 99.6826 410.438 98.1357C411.189 96.5889 412.264 95.2461 413.66 94.1074C415.078 92.9473 416.765 92.0449 418.72 91.4004C420.675 90.7559 422.855 90.4336 425.262 90.4336C428.785 90.4336 431.771 91.1104 434.221 92.4639C436.691 93.7959 438.571 95.5469 439.86 97.7168C441.149 99.8652 441.794 102.164 441.794 104.613H435.606C435.606 102.852 435.23 101.294 434.479 99.9404C433.727 98.5654 432.588 97.4912 431.062 96.7178C429.537 95.9229 427.604 95.5254 425.262 95.5254C423.049 95.5254 421.223 95.8584 419.783 96.5244C418.344 97.1904 417.27 98.0928 416.561 99.2314C415.873 100.37 415.529 101.67 415.529 103.131C415.529 104.119 415.733 105.021 416.142 105.838C416.571 106.633 417.227 107.374 418.107 108.062C419.01 108.749 420.148 109.383 421.523 109.963C422.92 110.543 424.585 111.102 426.519 111.639C429.183 112.391 431.481 113.229 433.415 114.152C435.349 115.076 436.938 116.118 438.185 117.278C439.452 118.417 440.387 119.717 440.988 121.178C441.611 122.617 441.923 124.25 441.923 126.076C441.923 127.988 441.536 129.718 440.763 131.265C439.989 132.812 438.883 134.133 437.443 135.229C436.004 136.324 434.274 137.173 432.255 137.774C430.257 138.354 428.022 138.645 425.552 138.645C423.382 138.645 421.244 138.344 419.139 137.742C417.055 137.141 415.153 136.238 413.435 135.035C411.737 133.832 410.373 132.35 409.342 130.588C408.332 128.805 407.827 126.742 407.827 124.4H414.015C414.015 126.012 414.326 127.397 414.949 128.558C415.572 129.696 416.421 130.642 417.495 131.394C418.591 132.146 419.826 132.704 421.201 133.069C422.598 133.413 424.048 133.585 425.552 133.585C427.722 133.585 429.559 133.284 431.062 132.683C432.566 132.081 433.705 131.222 434.479 130.104C435.273 128.987 435.671 127.666 435.671 126.141ZM454.91 109.834V151.406H448.916V103.131H454.395L454.91 109.834ZM478.403 120.275V120.952C478.403 123.487 478.103 125.84 477.501 128.01C476.899 130.158 476.019 132.027 474.858 133.617C473.72 135.207 472.312 136.442 470.637 137.323C468.961 138.204 467.038 138.645 464.868 138.645C462.655 138.645 460.7 138.279 459.003 137.549C457.306 136.818 455.866 135.755 454.685 134.358C453.503 132.962 452.558 131.286 451.849 129.331C451.161 127.376 450.688 125.174 450.431 122.725V119.115C450.688 116.537 451.172 114.228 451.881 112.187C452.59 110.146 453.524 108.405 454.685 106.966C455.866 105.505 457.295 104.398 458.971 103.646C460.646 102.873 462.58 102.486 464.771 102.486C466.963 102.486 468.907 102.916 470.604 103.775C472.302 104.613 473.73 105.816 474.891 107.385C476.051 108.953 476.921 110.833 477.501 113.024C478.103 115.194 478.403 117.611 478.403 120.275ZM472.409 120.952V120.275C472.409 118.535 472.227 116.902 471.861 115.377C471.496 113.83 470.927 112.477 470.153 111.316C469.401 110.135 468.435 109.211 467.253 108.545C466.071 107.857 464.664 107.514 463.031 107.514C461.527 107.514 460.217 107.771 459.1 108.287C458.004 108.803 457.069 109.501 456.296 110.382C455.522 111.241 454.889 112.229 454.395 113.347C453.922 114.442 453.567 115.581 453.331 116.763V125.109C453.761 126.613 454.362 128.031 455.136 129.363C455.909 130.674 456.94 131.737 458.229 132.554C459.519 133.349 461.141 133.746 463.096 133.746C464.707 133.746 466.093 133.413 467.253 132.747C468.435 132.06 469.401 131.125 470.153 129.943C470.927 128.762 471.496 127.408 471.861 125.883C472.227 124.336 472.409 122.692 472.409 120.952ZM506.569 132.038V114.088C506.569 112.713 506.29 111.521 505.731 110.511C505.194 109.479 504.378 108.685 503.282 108.126C502.187 107.567 500.833 107.288 499.222 107.288C497.718 107.288 496.396 107.546 495.258 108.062C494.141 108.577 493.26 109.254 492.615 110.092C491.992 110.93 491.681 111.832 491.681 112.799H485.719C485.719 111.553 486.041 110.317 486.686 109.093C487.33 107.868 488.254 106.762 489.457 105.773C490.682 104.764 492.143 103.969 493.84 103.389C495.559 102.787 497.471 102.486 499.576 102.486C502.111 102.486 504.346 102.916 506.279 103.775C508.234 104.635 509.76 105.935 510.855 107.675C511.973 109.394 512.531 111.553 512.531 114.152V130.395C512.531 131.555 512.628 132.79 512.821 134.101C513.036 135.411 513.348 136.539 513.756 137.484V138H507.536C507.235 137.312 506.999 136.399 506.827 135.261C506.655 134.101 506.569 133.026 506.569 132.038ZM507.601 116.859L507.665 121.049H501.639C499.941 121.049 498.427 121.188 497.095 121.468C495.763 121.726 494.646 122.123 493.743 122.66C492.841 123.197 492.153 123.874 491.681 124.69C491.208 125.485 490.972 126.42 490.972 127.494C490.972 128.59 491.219 129.589 491.713 130.491C492.207 131.394 492.948 132.113 493.937 132.65C494.946 133.166 496.182 133.424 497.643 133.424C499.469 133.424 501.08 133.037 502.477 132.264C503.873 131.49 504.979 130.545 505.796 129.428C506.634 128.311 507.085 127.226 507.149 126.173L509.695 129.041C509.545 129.943 509.137 130.942 508.471 132.038C507.805 133.134 506.913 134.187 505.796 135.196C504.7 136.185 503.39 137.012 501.864 137.678C500.36 138.322 498.663 138.645 496.772 138.645C494.409 138.645 492.336 138.183 490.553 137.259C488.791 136.335 487.416 135.1 486.428 133.553C485.461 131.984 484.978 130.233 484.978 128.3C484.978 126.431 485.343 124.787 486.073 123.369C486.804 121.93 487.856 120.737 489.231 119.792C490.606 118.825 492.261 118.095 494.194 117.601C496.128 117.106 498.287 116.859 500.672 116.859H507.601ZM535.863 133.746C537.281 133.746 538.592 133.456 539.795 132.876C540.998 132.296 541.986 131.501 542.76 130.491C543.533 129.46 543.974 128.289 544.081 126.979H549.753C549.646 129.041 548.947 130.964 547.658 132.747C546.391 134.509 544.726 135.938 542.663 137.033C540.601 138.107 538.334 138.645 535.863 138.645C533.242 138.645 530.954 138.183 528.999 137.259C527.065 136.335 525.454 135.067 524.165 133.456C522.897 131.845 521.941 129.997 521.297 127.913C520.674 125.808 520.362 123.584 520.362 121.242V119.889C520.362 117.547 520.674 115.334 521.297 113.25C521.941 111.145 522.897 109.286 524.165 107.675C525.454 106.063 527.065 104.796 528.999 103.872C530.954 102.948 533.242 102.486 535.863 102.486C538.592 102.486 540.977 103.045 543.018 104.162C545.059 105.258 546.659 106.762 547.819 108.674C549.001 110.564 549.646 112.713 549.753 115.119H544.081C543.974 113.68 543.565 112.38 542.856 111.22C542.169 110.06 541.224 109.136 540.021 108.448C538.839 107.739 537.453 107.385 535.863 107.385C534.037 107.385 532.501 107.75 531.255 108.48C530.03 109.189 529.053 110.156 528.322 111.381C527.613 112.584 527.098 113.927 526.775 115.409C526.475 116.87 526.324 118.363 526.324 119.889V121.242C526.324 122.768 526.475 124.271 526.775 125.754C527.076 127.236 527.581 128.579 528.29 129.782C529.021 130.985 529.998 131.952 531.223 132.683C532.469 133.392 534.016 133.746 535.863 133.746ZM570.926 138.645C568.498 138.645 566.296 138.236 564.319 137.42C562.364 136.582 560.678 135.411 559.26 133.907C557.863 132.403 556.789 130.62 556.037 128.558C555.285 126.495 554.909 124.239 554.909 121.79V120.437C554.909 117.601 555.328 115.076 556.166 112.863C557.004 110.629 558.143 108.738 559.582 107.191C561.021 105.645 562.654 104.474 564.48 103.679C566.307 102.884 568.197 102.486 570.152 102.486C572.645 102.486 574.793 102.916 576.598 103.775C578.424 104.635 579.917 105.838 581.077 107.385C582.237 108.91 583.097 110.715 583.655 112.799C584.214 114.861 584.493 117.117 584.493 119.566V122.241H558.454V117.375H578.531V116.924C578.445 115.377 578.123 113.873 577.564 112.412C577.027 110.951 576.168 109.748 574.986 108.803C573.805 107.857 572.193 107.385 570.152 107.385C568.799 107.385 567.553 107.675 566.414 108.255C565.275 108.813 564.298 109.651 563.481 110.769C562.665 111.886 562.031 113.25 561.58 114.861C561.129 116.473 560.903 118.331 560.903 120.437V121.79C560.903 123.444 561.129 125.002 561.58 126.463C562.053 127.902 562.729 129.17 563.61 130.266C564.513 131.361 565.598 132.221 566.865 132.844C568.154 133.467 569.615 133.778 571.248 133.778C573.354 133.778 575.137 133.349 576.598 132.489C578.059 131.63 579.337 130.48 580.433 129.041L584.042 131.909C583.29 133.048 582.334 134.133 581.174 135.164C580.014 136.195 578.585 137.033 576.888 137.678C575.212 138.322 573.225 138.645 570.926 138.645Z" fill="#151515"/>
<path d="M178.729 14.0781H196.228C199.815 14.0781 202.898 14.6152 205.477 15.6895C208.076 16.7637 210.074 18.3535 211.471 20.459C212.867 22.5645 213.565 25.1533 213.565 28.2256C213.565 30.7393 213.136 32.8984 212.276 34.7031C211.438 36.4863 210.246 37.9795 208.699 39.1826C207.174 40.3643 205.38 41.3096 203.317 42.0186L200.256 43.6299H185.045L184.98 36.0889H196.292C197.989 36.0889 199.396 35.7881 200.514 35.1865C201.631 34.585 202.469 33.7471 203.027 32.6729C203.607 31.5986 203.897 30.3525 203.897 28.9346C203.897 27.4307 203.618 26.1309 203.06 25.0352C202.501 23.9395 201.652 23.1016 200.514 22.5215C199.375 21.9414 197.946 21.6514 196.228 21.6514H188.396V61H178.729V14.0781ZM204.961 61L194.262 40.085L204.478 40.0205L215.306 60.5488V61H204.961ZM252.495 53.459V61H227.52V53.459H252.495ZM230.678 14.0781V61H221.01V14.0781H230.678ZM249.24 33.1885V40.5361H227.52V33.1885H249.24ZM252.463 14.0781V21.6514H227.52V14.0781H252.463ZM282.562 48.7217C282.562 47.8838 282.434 47.1318 282.176 46.4658C281.939 45.7783 281.488 45.1553 280.822 44.5967C280.156 44.0166 279.222 43.4473 278.019 42.8887C276.815 42.3301 275.258 41.75 273.346 41.1484C271.219 40.4609 269.199 39.6875 267.287 38.8281C265.396 37.9688 263.721 36.9697 262.26 35.8311C260.82 34.6709 259.682 33.3281 258.844 31.8027C258.027 30.2773 257.619 28.5049 257.619 26.4854C257.619 24.5303 258.049 22.7578 258.908 21.168C259.768 19.5566 260.971 18.1816 262.518 17.043C264.064 15.8828 265.891 14.9912 267.996 14.3682C270.123 13.7451 272.454 13.4336 274.989 13.4336C278.448 13.4336 281.467 14.0566 284.045 15.3027C286.623 16.5488 288.621 18.2568 290.039 20.4268C291.479 22.5967 292.198 25.0781 292.198 27.8711H282.595C282.595 26.4961 282.305 25.293 281.725 24.2617C281.166 23.209 280.307 22.3818 279.146 21.7803C278.008 21.1787 276.568 20.8779 274.828 20.8779C273.152 20.8779 271.756 21.1357 270.639 21.6514C269.521 22.1455 268.684 22.8223 268.125 23.6816C267.566 24.5195 267.287 25.4648 267.287 26.5176C267.287 27.3125 267.48 28.0322 267.867 28.6768C268.275 29.3213 268.877 29.9229 269.672 30.4814C270.467 31.04 271.444 31.5664 272.604 32.0605C273.765 32.5547 275.107 33.0381 276.633 33.5107C279.189 34.2842 281.435 35.1543 283.368 36.1211C285.323 37.0879 286.956 38.1729 288.267 39.376C289.577 40.5791 290.565 41.9434 291.231 43.4688C291.897 44.9941 292.23 46.7236 292.23 48.6572C292.23 50.6982 291.833 52.5244 291.038 54.1357C290.243 55.7471 289.094 57.1113 287.59 58.2285C286.086 59.3457 284.292 60.1943 282.208 60.7744C280.124 61.3545 277.793 61.6445 275.215 61.6445C272.895 61.6445 270.606 61.3438 268.351 60.7422C266.095 60.1191 264.043 59.1846 262.195 57.9385C260.369 56.6924 258.908 55.1025 257.812 53.1689C256.717 51.2354 256.169 48.9473 256.169 46.3047H265.869C265.869 47.7656 266.095 49.001 266.546 50.0107C266.997 51.0205 267.631 51.8369 268.447 52.46C269.285 53.083 270.273 53.5342 271.412 53.8135C272.572 54.0928 273.84 54.2324 275.215 54.2324C276.891 54.2324 278.266 53.9961 279.34 53.5234C280.436 53.0508 281.241 52.3955 281.757 51.5576C282.294 50.7197 282.562 49.7744 282.562 48.7217ZM330.29 53.459V61H305.314V53.459H330.29ZM308.473 14.0781V61H298.805V14.0781H308.473ZM327.035 33.1885V40.5361H305.314V33.1885H327.035ZM330.258 14.0781V21.6514H305.314V14.0781H330.258ZM335.93 14.0781H353.429C357.017 14.0781 360.1 14.6152 362.678 15.6895C365.277 16.7637 367.275 18.3535 368.672 20.459C370.068 22.5645 370.767 25.1533 370.767 28.2256C370.767 30.7393 370.337 32.8984 369.478 34.7031C368.64 36.4863 367.447 37.9795 365.9 39.1826C364.375 40.3643 362.581 41.3096 360.519 42.0186L357.457 43.6299H342.246L342.182 36.0889H353.493C355.19 36.0889 356.598 35.7881 357.715 35.1865C358.832 34.585 359.67 33.7471 360.229 32.6729C360.809 31.5986 361.099 30.3525 361.099 28.9346C361.099 27.4307 360.819 26.1309 360.261 25.0352C359.702 23.9395 358.854 23.1016 357.715 22.5215C356.576 21.9414 355.147 21.6514 353.429 21.6514H345.598V61H335.93V14.0781ZM362.162 61L351.463 40.085L361.679 40.0205L372.507 60.5488V61H362.162ZM394.485 51.2031L405.539 14.0781H416.303L399.964 61H392.874L394.485 51.2031ZM384.302 14.0781L395.323 51.2031L396.999 61H389.845L373.603 14.0781H384.302ZM452.171 53.459V61H427.195V53.459H452.171ZM430.354 14.0781V61H420.686V14.0781H430.354ZM448.916 33.1885V40.5361H427.195V33.1885H448.916ZM452.139 14.0781V21.6514H427.195V14.0781H452.139ZM472.216 61H462L462.064 53.459H472.216C474.751 53.459 476.889 52.8896 478.629 51.751C480.369 50.5908 481.68 48.9043 482.561 46.6914C483.463 44.4785 483.914 41.8037 483.914 38.667V36.3789C483.914 33.9727 483.656 31.8564 483.141 30.0303C482.646 28.2041 481.905 26.668 480.917 25.4219C479.929 24.1758 478.715 23.2412 477.275 22.6182C475.836 21.9736 474.182 21.6514 472.312 21.6514H461.807V14.0781H472.312C475.449 14.0781 478.317 14.6152 480.917 15.6895C483.538 16.7422 485.805 18.2568 487.717 20.2334C489.629 22.21 491.101 24.5732 492.132 27.3232C493.185 30.0518 493.711 33.0918 493.711 36.4434V38.667C493.711 41.9971 493.185 45.0371 492.132 47.7871C491.101 50.5371 489.629 52.9004 487.717 54.877C485.826 56.832 483.56 58.3467 480.917 59.4209C478.296 60.4736 475.396 61 472.216 61ZM467.479 14.0781V61H457.811V14.0781H467.479Z" fill="#656293"/>
<path d="M2.928 210.176V213.6H7.088V215.008H2.928V218.512H7.568V220H1.104V208.704H7.568V210.176H2.928ZM14.5544 220L12.3944 216.88L10.5064 220H8.47438L11.3864 215.424L8.44238 211.184H10.5064L12.6184 214.224L14.4904 211.184H16.5064L13.5944 215.632L16.6184 220H14.5544ZM22.9413 211.072C23.7093 211.072 24.3919 211.253 24.9893 211.616C25.5973 211.979 26.0719 212.501 26.4133 213.184C26.7546 213.867 26.9253 214.667 26.9253 215.584C26.9253 216.512 26.7546 217.317 26.4133 218C26.0719 218.683 25.5973 219.205 24.9893 219.568C24.3919 219.931 23.7093 220.112 22.9413 220.112C22.1413 220.112 21.4586 219.915 20.8932 219.52C20.3279 219.125 19.9333 218.603 19.7093 217.952V224.192H17.8853V211.184H19.7093V213.232C19.9333 212.581 20.3279 212.059 20.8932 211.664C21.4586 211.269 22.1413 211.072 22.9413 211.072ZM22.3813 212.672C21.8693 212.672 21.4106 212.795 21.0052 213.04C20.5999 213.275 20.2799 213.616 20.0453 214.064C19.8106 214.501 19.6933 215.008 19.6933 215.584C19.6933 216.171 19.8106 216.683 20.0453 217.12C20.2799 217.557 20.5999 217.899 21.0052 218.144C21.4106 218.379 21.8693 218.496 22.3813 218.496C23.1919 218.496 23.8426 218.24 24.3333 217.728C24.8239 217.205 25.0693 216.491 25.0693 215.584C25.0693 214.688 24.8239 213.979 24.3333 213.456C23.8426 212.933 23.1919 212.672 22.3813 212.672ZM30.5061 208.16V220H28.6821V208.16H30.5061ZM36.7454 211.072C37.5987 211.072 38.3667 211.253 39.0494 211.616C39.732 211.979 40.2654 212.501 40.6494 213.184C41.0334 213.867 41.2254 214.667 41.2254 215.584C41.2254 216.512 41.0334 217.317 40.6494 218C40.2654 218.683 39.732 219.205 39.0494 219.568C38.3667 219.931 37.5987 220.112 36.7454 220.112C35.892 220.112 35.124 219.931 34.4414 219.568C33.7694 219.205 33.236 218.683 32.8414 218C32.4574 217.307 32.2654 216.501 32.2654 215.584C32.2654 214.667 32.4574 213.867 32.8414 213.184C33.236 212.501 33.7694 211.979 34.4414 211.616C35.124 211.253 35.892 211.072 36.7454 211.072ZM36.7454 212.656C36.276 212.656 35.844 212.763 35.4494 212.976C35.0547 213.189 34.7347 213.52 34.4894 213.968C34.2547 214.405 34.1374 214.944 34.1374 215.584C34.1374 216.235 34.2547 216.779 34.4894 217.216C34.7347 217.653 35.0547 217.979 35.4494 218.192C35.844 218.405 36.276 218.512 36.7454 218.512C37.2147 218.512 37.6467 218.405 38.0414 218.192C38.436 217.979 38.7507 217.653 38.9854 217.216C39.2307 216.779 39.3534 216.235 39.3534 215.584C39.3534 214.944 39.2307 214.405 38.9854 213.968C38.7507 213.52 38.436 213.189 38.0414 212.976C37.6467 212.763 37.2147 212.656 36.7454 212.656ZM44.803 212.912C45.1017 212.336 45.5283 211.883 46.083 211.552C46.6377 211.211 47.2777 211.04 48.003 211.04V213.024H47.459C46.659 213.024 46.0137 213.221 45.523 213.616C45.043 214 44.803 214.64 44.803 215.536V220H42.979V211.184H44.803V212.912ZM57.5616 215.168C57.5616 215.467 57.5403 215.728 57.4976 215.952H50.7136C50.7456 216.859 50.9963 217.531 51.4656 217.968C51.935 218.405 52.5163 218.624 53.2096 218.624C53.8176 218.624 54.3296 218.469 54.7456 218.16C55.1723 217.851 55.4336 217.44 55.5296 216.928H57.4816C57.3643 217.547 57.119 218.096 56.7456 218.576C56.3723 219.056 55.887 219.435 55.2896 219.712C54.6923 219.979 54.0256 220.112 53.2896 220.112C52.4363 220.112 51.679 219.931 51.0176 219.568C50.367 219.205 49.855 218.683 49.4816 218C49.1083 217.317 48.9216 216.512 48.9216 215.584C48.9216 214.667 49.1083 213.867 49.4816 213.184C49.855 212.501 50.367 211.979 51.0176 211.616C51.679 211.253 52.4363 211.072 53.2896 211.072C54.1536 211.072 54.9056 211.253 55.5456 211.616C56.1963 211.968 56.6923 212.459 57.0336 213.088C57.3856 213.707 57.5616 214.4 57.5616 215.168ZM55.7216 215.12C55.743 214.544 55.6416 214.064 55.4176 213.68C55.2043 213.285 54.9056 212.997 54.5216 212.816C54.1483 212.624 53.7376 212.528 53.2896 212.528C52.575 212.528 51.9776 212.747 51.4976 213.184C51.0176 213.621 50.7563 214.267 50.7136 215.12H55.7216ZM72.2088 220H70.3848L64.8968 211.664V220H63.0728V208.72H64.8968L70.3848 217.088V208.72H72.2088V220ZM78.4485 211.072C79.3018 211.072 80.0698 211.253 80.7525 211.616C81.4352 211.979 81.9685 212.501 82.3525 213.184C82.7365 213.867 82.9285 214.667 82.9285 215.584C82.9285 216.512 82.7365 217.317 82.3525 218C81.9685 218.683 81.4352 219.205 80.7525 219.568C80.0698 219.931 79.3018 220.112 78.4485 220.112C77.5952 220.112 76.8272 219.931 76.1445 219.568C75.4725 219.205 74.9392 218.683 74.5445 218C74.1605 217.307 73.9685 216.501 73.9685 215.584C73.9685 214.667 74.1605 213.867 74.5445 213.184C74.9392 212.501 75.4725 211.979 76.1445 211.616C76.8272 211.253 77.5952 211.072 78.4485 211.072ZM78.4485 212.656C77.9792 212.656 77.5472 212.763 77.1525 212.976C76.7578 213.189 76.4378 213.52 76.1925 213.968C75.9578 214.405 75.8405 214.944 75.8405 215.584C75.8405 216.235 75.9578 216.779 76.1925 217.216C76.4378 217.653 76.7578 217.979 77.1525 218.192C77.5472 218.405 77.9792 218.512 78.4485 218.512C78.9178 218.512 79.3498 218.405 79.7445 218.192C80.1392 217.979 80.4538 217.653 80.6885 217.216C80.9338 216.779 81.0565 216.235 81.0565 215.584C81.0565 214.944 80.9338 214.405 80.6885 213.968C80.4538 213.52 80.1392 213.189 79.7445 212.976C79.3498 212.763 78.9178 212.656 78.4485 212.656ZM97.0341 211.184L94.5861 220H92.5701L90.3941 213.184L88.1861 220H86.1861L83.7381 211.184H85.5781L87.2581 218.32L89.4661 211.184H91.3861L93.6261 218.32L95.3061 211.184H97.0341Z" fill="#151515"/>
<path d="M109.5 214H120.5" stroke="#151515" stroke-width="1.5" stroke-linecap="round" stroke-linejoin="round"/>
<path d="M116 209.5L120.5 214L116 218.5" stroke="#151515" stroke-width="1.5" stroke-linecap="round" stroke-linejoin="round"/>
</svg>
